<?xml version="1.0" encoding="UTF-8" standalone="no"?>
<!DOCTYPE svg PUBLIC "-//W3C//DTD SVG 1.1//EN"
 "http://www.w3.org/Graphics/SVG/1.1/DTD/svg11.dtd">
<!-- Generated by graphviz version 2.49.1 (20210923.0004)
 -->
<!-- Title: dependency&#45;cruiser output Pages: 1 -->
<svg width="207pt" height="387pt"
 viewBox="0.00 0.00 207.00 387.00" xmlns="http://www.w3.org/2000/svg" xmlns:xlink="http://www.w3.org/1999/xlink">
<g id="graph0" class="graph" transform="scale(1 1) rotate(0) translate(4 383)">
<title>dependency&#45;cruiser output</title>
<polygon fill="white" stroke="transparent" points="-4,4 -4,-383 203,-383 203,4 -4,4"/>
<g id="clust1" class="cluster">
<title>cluster_src</title>
<path fill="#ffffff" stroke="black" stroke-width="2" d="M20,-75C20,-75 96,-75 96,-75 102,-75 108,-81 108,-87 108,-87 108,-359 108,-359 108,-365 102,-371 96,-371 96,-371 20,-371 20,-371 14,-371 8,-365 8,-359 8,-359 8,-87 8,-87 8,-81 14,-75 20,-75"/>
<text text-anchor="middle" x="58" y="-359.8" font-family="Helvetica,sans-Serif" font-weight="bold" font-size="9.00">src</text>
</g>
<g id="clust2" class="cluster">
<title>cluster_src/state</title>
<path fill="#ffffff" stroke="black" stroke-width="2" d="M28,-83C28,-83 88,-83 88,-83 94,-83 100,-89 100,-95 100,-95 100,-333 100,-333 100,-339 94,-345 88,-345 88,-345 28,-345 28,-345 22,-345 16,-339 16,-333 16,-333 16,-95 16,-95 16,-89 22,-83 28,-83"/>
<text text-anchor="middle" x="58" y="-333.8" font-family="Helvetica,sans-Serif" font-weight="bold" font-size="9.00">state</text>
</g>
<g id="clust3" class="cluster">
<title>cluster_state</title>
<path fill="#ffffff" stroke="black" stroke-width="2" d="M128,-98C128,-98 179,-98 179,-98 185,-98 191,-104 191,-110 191,-110 191,-258 191,-258 191,-264 185,-270 179,-270 179,-270 128,-270 128,-270 122,-270 116,-264 116,-258 116,-258 116,-110 116,-110 116,-104 122,-98 128,-98"/>
<text text-anchor="middle" x="153.5" y="-258.8" font-family="Helvetica,sans-Serif" font-weight="bold" font-size="9.00">state</text>
</g>
<g id="clust4" class="cluster">
<title>cluster_utilities</title>
<path fill="#ffffff" stroke="black" stroke-width="2" d="M130,-8C130,-8 177,-8 177,-8 183,-8 189,-14 189,-20 189,-20 189,-78 189,-78 189,-84 183,-90 177,-90 177,-90 130,-90 130,-90 124,-90 118,-84 118,-78 118,-78 118,-20 118,-20 118,-14 124,-8 130,-8"/>
<text text-anchor="middle" x="153.5" y="-78.8" font-family="Helvetica,sans-Serif" font-weight="bold" font-size="9.00">utilities</text>
</g>
<!-- src/state/attributes.js -->
<g id="node1" class="node">
<title>src/state/attributes.js</title>
<g id="a_node1"><a xlink:href="src/state/attributes.js" xlink:title="attributes.js">
<path fill="#ccffcc" stroke="black" d="M83.5,-319C83.5,-319 32.5,-319 32.5,-319 29.5,-319 26.5,-316 26.5,-313 26.5,-313 26.5,-307 26.5,-307 26.5,-304 29.5,-301 32.5,-301 32.5,-301 83.5,-301 83.5,-301 86.5,-301 89.5,-304 89.5,-307 89.5,-307 89.5,-313 89.5,-313 89.5,-316 86.5,-319 83.5,-319"/>
<text text-anchor="middle" x="58" y="-307.8" font-family="Helvetica,sans-Serif" font-size="9.00">attributes.js</text>
</a>
</g>
</g>
<!-- src/state/caravan.js -->
<g id="node2" class="node">
<title>src/state/caravan.js</title>
<g id="a_node2"><a xlink:href="src/state/caravan.js" xlink:title="caravan.js">
<path fill="#ccffcc" stroke="black" d="M81,-289C81,-289 35,-289 35,-289 32,-289 29,-286 29,-283 29,-283 29,-277 29,-277 29,-274 32,-271 35,-271 35,-271 81,-271 81,-271 84,-271 87,-274 87,-277 87,-277 87,-283 87,-283 87,-286 84,-289 81,-289"/>
<text text-anchor="middle" x="58" y="-277.8" font-family="Helvetica,sans-Serif" font-size="9.00">caravan.js</text>
</a>
</g>
</g>
<!-- src/state/character.js -->
<g id="node3" class="node">
<title>src/state/character.js</title>
<g id="a_node3"><a xlink:href="src/state/character.js" xlink:title="character.js">
<path fill="#ffffcc" stroke="black" d="M83.5,-139C83.5,-139 32.5,-139 32.5,-139 29.5,-139 26.5,-136 26.5,-133 26.5,-133 26.5,-127 26.5,-127 26.5,-124 29.5,-121 32.5,-121 32.5,-121 83.5,-121 83.5,-121 86.5,-121 89.5,-124 89.5,-127 89.5,-127 89.5,-133 89.5,-133 89.5,-136 86.5,-139 83.5,-139"/>
<text text-anchor="middle" x="58" y="-127.8" font-family="Helvetica,sans-Serif" font-size="9.00">character.js</text>
</a>
</g>
</g>
<!-- state/equipment -->
<g id="node4" class="node">
<title>state/equipment</title>
<path fill="#ffffcc" stroke="red" d="M177,-214C177,-214 130,-214 130,-214 127,-214 124,-211 124,-208 124,-208 124,-202 124,-202 124,-199 127,-196 130,-196 130,-196 177,-196 177,-196 180,-196 183,-199 183,-202 183,-202 183,-208 183,-208 183,-211 180,-214 177,-214"/>
<text text-anchor="middle" x="153.5" y="-202.8" font-family="Helvetica,sans-Serif" font-size="9.00" fill="red">equipment</text>
</g>
<!-- src/state/character.js&#45;&gt;state/equipment -->
<g id="edge1" class="edge">
<title>src/state/character.js&#45;&gt;state/equipment</title>
<path fill="none" stroke="#000000" stroke-width="2" stroke-opacity="0.200000" d="M89.69,-133.88C96.56,-136.12 103.22,-139.61 108,-145 121.47,-160.21 103.25,-174.18 116,-190 116.81,-191 117.69,-191.93 118.64,-192.81"/>
<polygon fill="#000000" fill-opacity="0.200000" stroke="#000000" stroke-width="2" stroke-opacity="0.200000" points="117.75,-194.76 123.81,-196.67 120.26,-191.4 117.75,-194.76"/>
</g>
<!-- state/global -->
<g id="node5" class="node">
<title>state/global</title>
<path fill="#ffffcc" stroke="red" d="M174.5,-184C174.5,-184 132.5,-184 132.5,-184 129.5,-184 126.5,-181 126.5,-178 126.5,-178 126.5,-172 126.5,-172 126.5,-169 129.5,-166 132.5,-166 132.5,-166 174.5,-166 174.5,-166 177.5,-166 180.5,-169 180.5,-172 180.5,-172 180.5,-178 180.5,-178 180.5,-181 177.5,-184 174.5,-184"/>
<text text-anchor="middle" x="153.5" y="-172.8" font-family="Helvetica,sans-Serif" font-size="9.00" fill="red">global</text>
</g>
<!-- src/state/character.js&#45;&gt;state/global -->
<g id="edge2" class="edge">
<title>src/state/character.js&#45;&gt;state/global</title>
<path fill="none" stroke="#000000" stroke-width="2" stroke-opacity="0.200000" d="M89.61,-135.36C96.17,-137.55 102.71,-140.65 108,-145 113.83,-149.8 110.4,-154.93 116,-160 117.52,-161.38 119.19,-162.64 120.95,-163.79"/>
<polygon fill="#000000" fill-opacity="0.200000" stroke="#000000" stroke-width="2" stroke-opacity="0.200000" points="120.19,-165.78 126.44,-166.94 122.27,-162.13 120.19,-165.78"/>
</g>
<!-- state/resources -->
<g id="node6" class="node">
<title>state/resources</title>
<path fill="#ffffcc" stroke="red" d="M175.5,-154C175.5,-154 131.5,-154 131.5,-154 128.5,-154 125.5,-151 125.5,-148 125.5,-148 125.5,-142 125.5,-142 125.5,-139 128.5,-136 131.5,-136 131.5,-136 175.5,-136 175.5,-136 178.5,-136 181.5,-139 181.5,-142 181.5,-142 181.5,-148 181.5,-148 181.5,-151 178.5,-154 175.5,-154"/>
<text text-anchor="middle" x="153.5" y="-142.8" font-family="Helvetica,sans-Serif" font-size="9.00" fill="red">resources</text>
</g>
<!-- src/state/character.js&#45;&gt;state/resources -->
<g id="edge3" class="edge">
<title>src/state/character.js&#45;&gt;state/resources</title>
<path fill="none" stroke="#000000" stroke-width="2" stroke-opacity="0.200000" d="M89.62,-134.91C99.05,-136.43 109.49,-138.1 119.1,-139.64"/>
<polygon fill="#000000" fill-opacity="0.200000" stroke="#000000" stroke-width="2" stroke-opacity="0.200000" points="119.03,-141.76 125.28,-140.63 119.69,-137.61 119.03,-141.76"/>
</g>
<!-- state/stats -->
<g id="node7" class="node">
<title>state/stats</title>
<path fill="#ffffcc" stroke="red" d="M174.5,-124C174.5,-124 132.5,-124 132.5,-124 129.5,-124 126.5,-121 126.5,-118 126.5,-118 126.5,-112 126.5,-112 126.5,-109 129.5,-106 132.5,-106 132.5,-106 174.5,-106 174.5,-106 177.5,-106 180.5,-109 180.5,-112 180.5,-112 180.5,-118 180.5,-118 180.5,-121 177.5,-124 174.5,-124"/>
<text text-anchor="middle" x="153.5" y="-112.8" font-family="Helvetica,sans-Serif" font-size="9.00" fill="red">stats</text>
</g>
<!-- src/state/character.js&#45;&gt;state/stats -->
<g id="edge4" class="edge">
<title>src/state/character.js&#45;&gt;state/stats</title>
<path fill="none" stroke="#000000" stroke-width="2" stroke-opacity="0.200000" d="M89.62,-125.09C99.41,-123.52 110.27,-121.77 120.18,-120.18"/>
<polygon fill="#000000" fill-opacity="0.200000" stroke="#000000" stroke-width="2" stroke-opacity="0.200000" points="120.62,-122.24 126.21,-119.22 119.95,-118.09 120.62,-122.24"/>
</g>
<!-- utilities/helpers -->
<g id="node8" class="node">
<title>utilities/helpers</title>
<path fill="#ffffcc" stroke="red" d="M174.5,-64C174.5,-64 132.5,-64 132.5,-64 129.5,-64 126.5,-61 126.5,-58 126.5,-58 126.5,-52 126.5,-52 126.5,-49 129.5,-46 132.5,-46 132.5,-46 174.5,-46 174.5,-46 177.5,-46 180.5,-49 180.5,-52 180.5,-52 180.5,-58 180.5,-58 180.5,-61 177.5,-64 174.5,-64"/>
<text text-anchor="middle" x="153.5" y="-52.8" font-family="Helvetica,sans-Serif" font-size="9.00" fill="red">helpers</text>
</g>
<!-- src/state/character.js&#45;&gt;utilities/helpers -->
<g id="edge5" class="edge">
<title>src/state/character.js&#45;&gt;utilities/helpers</title>
<path fill="none" stroke="#000000" stroke-width="2" stroke-opacity="0.200000" d="M89.72,-125.14C96.35,-122.93 102.89,-119.7 108,-115 115.05,-108.52 110.91,-103.11 116,-95 122.12,-85.24 130.75,-75.66 138.08,-68.32"/>
<polygon fill="#000000" fill-opacity="0.200000" stroke="#000000" stroke-width="2" stroke-opacity="0.200000" points="139.61,-69.75 142.44,-64.06 136.68,-66.75 139.61,-69.75"/>
</g>
<!-- src/state/equipment.js -->
<g id="node9" class="node">
<title>src/state/equipment.js</title>
<g id="a_node9"><a xlink:href="src/state/equipment.js" xlink:title="equipment.js">
<path fill="#ffffcc" stroke="black" d="M86,-109C86,-109 30,-109 30,-109 27,-109 24,-106 24,-103 24,-103 24,-97 24,-97 24,-94 27,-91 30,-91 30,-91 86,-91 86,-91 89,-91 92,-94 92,-97 92,-97 92,-103 92,-103 92,-106 89,-109 86,-109"/>
<text text-anchor="middle" x="58" y="-97.8" font-family="Helvetica,sans-Serif" font-size="9.00">equipment.js</text>
</a>
</g>
</g>
<!-- utilities/constants -->
<g id="node10" class="node">
<title>utilities/constants</title>
<path fill="#ffffcc" stroke="red" d="M175,-34C175,-34 132,-34 132,-34 129,-34 126,-31 126,-28 126,-28 126,-22 126,-22 126,-19 129,-16 132,-16 132,-16 175,-16 175,-16 178,-16 181,-19 181,-22 181,-22 181,-28 181,-28 181,-31 178,-34 175,-34"/>
<text text-anchor="middle" x="153.5" y="-22.8" font-family="Helvetica,sans-Serif" font-size="9.00" fill="red">constants</text>
</g>
<!-- src/state/equipment.js&#45;&gt;utilities/constants -->
<g id="edge6" class="edge">
<title>src/state/equipment.js&#45;&gt;utilities/constants</title>
<path fill="none" stroke="#000000" stroke-width="2" stroke-opacity="0.200000" d="M65.77,-90.71C75.58,-77.81 94.9,-54.45 116,-40 117.64,-38.88 119.38,-37.82 121.17,-36.82"/>
<polygon fill="#000000" fill-opacity="0.200000" stroke="#000000" stroke-width="2" stroke-opacity="0.200000" points="122.27,-38.61 126.66,-34.01 120.36,-34.87 122.27,-38.61"/>
</g>
<!-- src/state/global.js -->
<g id="node11" class="node">
<title>src/state/global.js</title>
<g id="a_node11"><a xlink:href="src/state/global.js" xlink:title="global.js">
<path fill="#ccffcc" stroke="black" d="M79,-199C79,-199 37,-199 37,-199 34,-199 31,-196 31,-193 31,-193 31,-187 31,-187 31,-184 34,-181 37,-181 37,-181 79,-181 79,-181 82,-181 85,-184 85,-187 85,-187 85,-193 85,-193 85,-196 82,-199 79,-199"/>
<text text-anchor="middle" x="58" y="-187.8" font-family="Helvetica,sans-Serif" font-size="9.00">global.js</text>
</a>
</g>
</g>
<!-- src/state/loot.js -->
<g id="node12" class="node">
<title>src/state/loot.js</title>
<g id="a_node12"><a xlink:href="src/state/loot.js" xlink:title="loot.js">
<path fill="#ffffcc" stroke="black" d="M79,-169C79,-169 37,-169 37,-169 34,-169 31,-166 31,-163 31,-163 31,-157 31,-157 31,-154 34,-151 37,-151 37,-151 79,-151 79,-151 82,-151 85,-154 85,-157 85,-157 85,-163 85,-163 85,-166 82,-169 79,-169"/>
<text text-anchor="middle" x="58" y="-157.8" font-family="Helvetica,sans-Serif" font-size="9.00">loot.js</text>
</a>
</g>
</g>
<!-- src/state/loot.js&#45;&gt;state/global -->
<g id="edge7" class="edge">
<title>src/state/loot.js&#45;&gt;state/global</title>
<path fill="none" stroke="#000000" stroke-width="2" stroke-opacity="0.200000" d="M85.04,-164.18C95.9,-165.92 108.61,-167.96 120.06,-169.8"/>
<polygon fill="#000000" fill-opacity="0.200000" stroke="#000000" stroke-width="2" stroke-opacity="0.200000" points="120.01,-171.92 126.27,-170.79 120.68,-167.77 120.01,-171.92"/>
</g>
<!-- src/state/resources.js -->
<g id="node13" class="node">
<title>src/state/resources.js</title>
<g id="a_node13"><a xlink:href="src/state/resources.js" xlink:title="resources.js">
<path fill="#ffffcc" stroke="black" d="M84.5,-259C84.5,-259 31.5,-259 31.5,-259 28.5,-259 25.5,-256 25.5,-253 25.5,-253 25.5,-247 25.5,-247 25.5,-244 28.5,-241 31.5,-241 31.5,-241 84.5,-241 84.5,-241 87.5,-241 90.5,-244 90.5,-247 90.5,-247 90.5,-253 90.5,-253 90.5,-256 87.5,-259 84.5,-259"/>
<text text-anchor="middle" x="58" y="-247.8" font-family="Helvetica,sans-Serif" font-size="9.00">resources.js</text>
</a>
</g>
</g>
<!-- state/attributes -->
<g id="node14" class="node">
<title>state/attributes</title>
<path fill="#ffffcc" stroke="red" d="M174.5,-244C174.5,-244 132.5,-244 132.5,-244 129.5,-244 126.5,-241 126.5,-238 126.5,-238 126.5,-232 126.5,-232 126.5,-229 129.5,-226 132.5,-226 132.5,-226 174.5,-226 174.5,-226 177.5,-226 180.5,-229 180.5,-232 180.5,-232 180.5,-238 180.5,-238 180.5,-241 177.5,-244 174.5,-244"/>
<text text-anchor="middle" x="153.5" y="-232.8" font-family="Helvetica,sans-Serif" font-size="9.00" fill="red">attributes</text>
</g>
<!-- src/state/resources.js&#45;&gt;state/attributes -->
<g id="edge8" class="edge">
<title>src/state/resources.js&#45;&gt;state/attributes</title>
<path fill="none" stroke="#000000" stroke-width="2" stroke-opacity="0.200000" d="M90.65,-244.92C100.22,-243.39 110.72,-241.7 120.32,-240.16"/>
<polygon fill="#000000" fill-opacity="0.200000" stroke="#000000" stroke-width="2" stroke-opacity="0.200000" points="120.88,-242.2 126.47,-239.18 120.21,-238.05 120.88,-242.2"/>
</g>
<!-- src/state/stats.js -->
<g id="node15" class="node">
<title>src/state/stats.js</title>
<g id="a_node15"><a xlink:href="src/state/stats.js" xlink:title="stats.js">
<path fill="#ffffcc" stroke="black" d="M79,-229C79,-229 37,-229 37,-229 34,-229 31,-226 31,-223 31,-223 31,-217 31,-217 31,-214 34,-211 37,-211 37,-211 79,-211 79,-211 82,-211 85,-214 85,-217 85,-217 85,-223 85,-223 85,-226 82,-229 79,-229"/>
<text text-anchor="middle" x="58" y="-217.8" font-family="Helvetica,sans-Serif" font-size="9.00">stats.js</text>
</a>
</g>
</g>
<!-- src/state/stats.js&#45;&gt;state/equipment -->
<g id="edge10" class="edge">
<title>src/state/stats.js&#45;&gt;state/equipment</title>
<path fill="none" stroke="#000000" stroke-width="2" stroke-opacity="0.200000" d="M85.04,-215.82C95.26,-214.18 107.12,-212.28 118.03,-210.53"/>
<polygon fill="#000000" fill-opacity="0.200000" stroke="#000000" stroke-width="2" stroke-opacity="0.200000" points="118.38,-212.6 123.97,-209.58 117.71,-208.45 118.38,-212.6"/>
</g>
<!-- src/state/stats.js&#45;&gt;state/attributes -->
<g id="edge9" class="edge">
<title>src/state/stats.js&#45;&gt;state/attributes</title>
<path fill="none" stroke="#000000" stroke-width="2" stroke-opacity="0.200000" d="M85.04,-224.18C95.9,-225.92 108.61,-227.96 120.06,-229.8"/>
<polygon fill="#000000" fill-opacity="0.200000" stroke="#000000" stroke-width="2" stroke-opacity="0.200000" points="120.01,-231.92 126.27,-230.79 120.68,-227.77 120.01,-231.92"/>
</g>
</g>
</svg>
