<?xml version="1.0" encoding="iso-8859-1"?>
<!-- Generator: Adobe Illustrator 19.0.0, SVG Export Plug-In . SVG Version: 6.00 Build 0)  -->
<svg version="1.1" id="Capa_1" xmlns="http://www.w3.org/2000/svg" xmlns:xlink="http://www.w3.org/1999/xlink" x="0px" y="0px"
	 viewBox="0 0 512.001 512.001" style="enable-background:new 0 0 512.001 512.001;" xml:space="preserve">
<g>
	<g>
		<path d="M507.606,4.394c-3.339-3.339-8.055-4.909-12.728-4.243L346.387,21.364c-3.688,0.527-7.047,2.406-9.425,5.273
			L139.321,264.938c-16.353-7.263-36.394-4.357-50.074,9.323l-21.213,21.213c-5.854,5.854-5.857,15.356,0,21.213l31.82,31.82
			l-48.64,48.64H45c-24.813,0-45,20.187-45,45V467c0,24.813,20.187,45,45,45h24.853c24.813,0,45-20.187,45-45v-6.213l48.639-48.64
			l31.82,31.82c5.854,5.854,15.356,5.857,21.213,0l21.212-21.213c13.638-13.638,16.611-33.666,9.323-50.075l238.302-197.641
			c2.866-2.378,4.746-5.737,5.273-9.425L511.85,17.121C512.517,12.447,510.945,7.732,507.606,4.394z M84.853,467
			c0,8.271-6.729,15-15,15H45c-8.271,0-15-6.729-15-15v-24.853c0-8.271,6.729-15,15-15h6.213l33.64,33.64V467z M99.853,433.36
			L78.64,412.147l42.426-42.426l21.213,21.213L99.853,433.36z M216.525,401.54l-10.606,10.606L99.853,306.081l10.607-10.606
			c5.863-5.863,15.349-5.863,21.213,0l84.853,84.853C222.388,386.191,222.388,395.677,216.525,401.54z M461.757,155.642
			L228.075,349.451l-22.156-22.157l174.408-174.408c5.858-5.858,5.858-15.355,0-21.213c-5.857-5.858-15.355-5.858-21.213,0
			L184.706,306.081l-22.156-22.156L356.358,50.244l122.964-17.566L461.757,155.642z"/>
	</g>
</g>
<g>
</g>
<g>
</g>
<g>
</g>
<g>
</g>
<g>
</g>
<g>
</g>
<g>
</g>
<g>
</g>
<g>
</g>
<g>
</g>
<g>
</g>
<g>
</g>
<g>
</g>
<g>
</g>
<g>
</g>
</svg>
